<svg xmlns="http://www.w3.org/2000/svg" viewBox="0 0 100 100">
  <defs>
    <g id="a" fill="#29ABE2">
      <rect x="45" y="24" width="10" height="26"/>
      <rect x="43" y="29" width="14" height="2"   fill="white"/>
      <rect x="43" y="36" width="14" height="2"   fill="white"/>
      <rect x="43" y="43" width="14" height="2"   fill="white"/>
      <rect x="-10" y="-17" width="10" height="17" transform="translate(45,24) rotate(-44)"/>
      <rect x="-11" y="-10" width="11" height="1.8" fill="white" transform="translate(45,24) rotate(-44)"/>
      <rect x="-9" y="-12" width="9" height="12" transform="translate(45,24) rotate(-44) translate(-10,-17) rotate(-42)"/>
      <rect x="-9" y="-7"  width="9" height="1.5" fill="white" transform="translate(45,24) rotate(-44) translate(-10,-17) rotate(-42)"/>
      <rect x="0"  y="-12" width="9" height="12" transform="translate(45,24) rotate(-44) translate(0,-17) rotate(38)"/>
      <rect x="0"  y="-7"  width="9" height="1.5" fill="white" transform="translate(45,24) rotate(-44) translate(0,-17) rotate(38)"/>
      <rect x="0"  y="-17" width="10" height="17" transform="translate(55,24) rotate(44)"/>
      <rect x="0"  y="-10" width="11" height="1.8" fill="white" transform="translate(55,24) rotate(44)"/>
      <rect x="0"  y="-12" width="9" height="12" transform="translate(55,24) rotate(44) translate(10,-17) rotate(42)"/>
      <rect x="0"  y="-7"  width="9" height="1.5" fill="white" transform="translate(55,24) rotate(44) translate(10,-17) rotate(42)"/>
      <rect x="-9" y="-12" width="9" height="12" transform="translate(55,24) rotate(44) translate(0,-17) rotate(-38)"/>
      <rect x="-9" y="-7"  width="9" height="1.5" fill="white" transform="translate(55,24) rotate(44) translate(0,-17) rotate(-38)"/>
      <rect x="-9" y="-15" width="9" height="15" transform="translate(45,33) rotate(-58)"/>
      <rect x="-10" y="-9" width="11" height="1.8" fill="white" transform="translate(45,33) rotate(-58)"/>
      <rect x="-10" y="-4" width="11" height="1.8" fill="white" transform="translate(45,33) rotate(-58)"/>
      <rect x="-8" y="-11" width="8" height="11" transform="translate(45,33) rotate(-58) translate(-9,-15) rotate(-38)"/>
      <rect x="-8" y="-6"  width="9" height="1.5" fill="white" transform="translate(45,33) rotate(-58) translate(-9,-15) rotate(-38)"/>
      <rect x="0"  y="-11" width="8" height="11" transform="translate(45,33) rotate(-58) translate(0,-15) rotate(32)"/>
      <rect x="0"  y="-6"  width="9" height="1.5" fill="white" transform="translate(45,33) rotate(-58) translate(0,-15) rotate(32)"/>
      <rect x="0"  y="-15" width="9" height="15" transform="translate(55,33) rotate(58)"/>
      <rect x="0"  y="-9"  width="11" height="1.8" fill="white" transform="translate(55,33) rotate(58)"/>
      <rect x="0"  y="-4"  width="11" height="1.8" fill="white" transform="translate(55,33) rotate(58)"/>
      <rect x="0"  y="-11" width="8" height="11" transform="translate(55,33) rotate(58) translate(9,-15) rotate(38)"/>
      <rect x="0"  y="-6"  width="9" height="1.5" fill="white" transform="translate(55,33) rotate(58) translate(9,-15) rotate(38)"/>
      <rect x="-8" y="-11" width="8" height="11" transform="translate(55,33) rotate(58) translate(0,-15) rotate(-32)"/>
      <rect x="-8" y="-6"  width="9" height="1.5" fill="white" transform="translate(55,33) rotate(58) translate(0,-15) rotate(-32)"/>
    </g>
  </defs>
  <use href="#a" transform="rotate(0,50,50)"/>
  <use href="#a" transform="rotate(60,50,50)"/>
  <use href="#a" transform="rotate(120,50,50)"/>
  <use href="#a" transform="rotate(180,50,50)"/>
  <use href="#a" transform="rotate(240,50,50)"/>
  <use href="#a" transform="rotate(300,50,50)"/>
  <circle cx="50" cy="50" r="5.5" fill="white"/>
</svg>
