<svg xmlns="http://www.w3.org/2000/svg" viewBox="0 0 100 100">

  <!-- ARM 0° -->
  <g transform="rotate(0,50,50)" fill="#29ABE2">
    <rect x="44" y="16" width="12" height="27"/>
    <rect x="42" y="21" width="16" height="2.5" fill="white"/>
    <rect x="42" y="30" width="16" height="2.5" fill="white"/>
    <rect x="-12" y="-20" width="12" height="20" transform="translate(44,16) rotate(-44)"/>
    <rect x="-13" y="-13" width="13" height="2" fill="white" transform="translate(44,16) rotate(-44)"/>
    <rect x="-9" y="-12" width="9" height="12" transform="translate(44,16) rotate(-44) translate(-12,-20) rotate(-40)"/>
    <rect x="0"  y="-12" width="9" height="12" transform="translate(44,16) rotate(-44) translate(0,-20) rotate(34)"/>
    <rect x="0"  y="-20" width="12" height="20" transform="translate(56,16) rotate(44)"/>
    <rect x="0"  y="-13" width="13" height="2"  fill="white" transform="translate(56,16) rotate(44)"/>
    <rect x="0"  y="-12" width="9" height="12" transform="translate(56,16) rotate(44) translate(12,-20) rotate(40)"/>
    <rect x="-9" y="-12" width="9" height="12" transform="translate(56,16) rotate(44) translate(0,-20) rotate(-34)"/>
    <rect x="-9" y="-15" width="9" height="15" transform="translate(44,29) rotate(-56)"/>
    <rect x="-10" y="-9" width="11" height="2" fill="white" transform="translate(44,29) rotate(-56)"/>
    <rect x="-8" y="-11" width="8" height="11" transform="translate(44,29) rotate(-56) translate(-9,-15) rotate(-36)"/>
    <rect x="0"  y="-11" width="8" height="11" transform="translate(44,29) rotate(-56) translate(0,-15) rotate(30)"/>
    <rect x="0"  y="-15" width="9" height="15" transform="translate(56,29) rotate(56)"/>
    <rect x="0"  y="-9"  width="11" height="2" fill="white" transform="translate(56,29) rotate(56)"/>
    <rect x="0"  y="-11" width="8" height="11" transform="translate(56,29) rotate(56) translate(9,-15) rotate(36)"/>
    <rect x="-8" y="-11" width="8" height="11" transform="translate(56,29) rotate(56) translate(0,-15) rotate(-30)"/>
  </g>

  <!-- ARM 60° -->
  <g transform="rotate(60,50,50)" fill="#29ABE2">
    <rect x="44" y="16" width="12" height="27"/>
    <rect x="42" y="21" width="16" height="2.5" fill="white"/>
    <rect x="42" y="30" width="16" height="2.5" fill="white"/>
    <rect x="-12" y="-20" width="12" height="20" transform="translate(44,16) rotate(-44)"/>
    <rect x="-13" y="-13" width="13" height="2" fill="white" transform="translate(44,16) rotate(-44)"/>
    <rect x="-9" y="-12" width="9" height="12" transform="translate(44,16) rotate(-44) translate(-12,-20) rotate(-40)"/>
    <rect x="0"  y="-12" width="9" height="12" transform="translate(44,16) rotate(-44) translate(0,-20) rotate(34)"/>
    <rect x="0"  y="-20" width="12" height="20" transform="translate(56,16) rotate(44)"/>
    <rect x="0"  y="-13" width="13" height="2"  fill="white" transform="translate(56,16) rotate(44)"/>
    <rect x="0"  y="-12" width="9" height="12" transform="translate(56,16) rotate(44) translate(12,-20) rotate(40)"/>
    <rect x="-9" y="-12" width="9" height="12" transform="translate(56,16) rotate(44) translate(0,-20) rotate(-34)"/>
    <rect x="-9" y="-15" width="9" height="15" transform="translate(44,29) rotate(-56)"/>
    <rect x="-10" y="-9" width="11" height="2" fill="white" transform="translate(44,29) rotate(-56)"/>
    <rect x="-8" y="-11" width="8" height="11" transform="translate(44,29) rotate(-56) translate(-9,-15) rotate(-36)"/>
    <rect x="0"  y="-11" width="8" height="11" transform="translate(44,29) rotate(-56) translate(0,-15) rotate(30)"/>
    <rect x="0"  y="-15" width="9" height="15" transform="translate(56,29) rotate(56)"/>
    <rect x="0"  y="-9"  width="11" height="2" fill="white" transform="translate(56,29) rotate(56)"/>
    <rect x="0"  y="-11" width="8" height="11" transform="translate(56,29) rotate(56) translate(9,-15) rotate(36)"/>
    <rect x="-8" y="-11" width="8" height="11" transform="translate(56,29) rotate(56) translate(0,-15) rotate(-30)"/>
  </g>

  <!-- ARM 120° -->
  <g transform="rotate(120,50,50)" fill="#29ABE2">
    <rect x="44" y="16" width="12" height="27"/>
    <rect x="42" y="21" width="16" height="2.5" fill="white"/>
    <rect x="42" y="30" width="16" height="2.5" fill="white"/>
    <rect x="-12" y="-20" width="12" height="20" transform="translate(44,16) rotate(-44)"/>
    <rect x="-13" y="-13" width="13" height="2" fill="white" transform="translate(44,16) rotate(-44)"/>
    <rect x="-9" y="-12" width="9" height="12" transform="translate(44,16) rotate(-44) translate(-12,-20) rotate(-40)"/>
    <rect x="0"  y="-12" width="9" height="12" transform="translate(44,16) rotate(-44) translate(0,-20) rotate(34)"/>
    <rect x="0"  y="-20" width="12" height="20" transform="translate(56,16) rotate(44)"/>
    <rect x="0"  y="-13" width="13" height="2"  fill="white" transform="translate(56,16) rotate(44)"/>
    <rect x="0"  y="-12" width="9" height="12" transform="translate(56,16) rotate(44) translate(12,-20) rotate(40)"/>
    <rect x="-9" y="-12" width="9" height="12" transform="translate(56,16) rotate(44) translate(0,-20) rotate(-34)"/>
    <rect x="-9" y="-15" width="9" height="15" transform="translate(44,29) rotate(-56)"/>
    <rect x="-10" y="-9" width="11" height="2" fill="white" transform="translate(44,29) rotate(-56)"/>
    <rect x="-8" y="-11" width="8" height="11" transform="translate(44,29) rotate(-56) translate(-9,-15) rotate(-36)"/>
    <rect x="0"  y="-11" width="8" height="11" transform="translate(44,29) rotate(-56) translate(0,-15) rotate(30)"/>
    <rect x="0"  y="-15" width="9" height="15" transform="translate(56,29) rotate(56)"/>
    <rect x="0"  y="-9"  width="11" height="2" fill="white" transform="translate(56,29) rotate(56)"/>
    <rect x="0"  y="-11" width="8" height="11" transform="translate(56,29) rotate(56) translate(9,-15) rotate(36)"/>
    <rect x="-8" y="-11" width="8" height="11" transform="translate(56,29) rotate(56) translate(0,-15) rotate(-30)"/>
  </g>

  <!-- ARM 180° -->
  <g transform="rotate(180,50,50)" fill="#29ABE2">
    <rect x="44" y="16" width="12" height="27"/>
    <rect x="42" y="21" width="16" height="2.5" fill="white"/>
    <rect x="42" y="30" width="16" height="2.5" fill="white"/>
    <rect x="-12" y="-20" width="12" height="20" transform="translate(44,16) rotate(-44)"/>
    <rect x="-13" y="-13" width="13" height="2" fill="white" transform="translate(44,16) rotate(-44)"/>
    <rect x="-9" y="-12" width="9" height="12" transform="translate(44,16) rotate(-44) translate(-12,-20) rotate(-40)"/>
    <rect x="0"  y="-12" width="9" height="12" transform="translate(44,16) rotate(-44) translate(0,-20) rotate(34)"/>
    <rect x="0"  y="-20" width="12" height="20" transform="translate(56,16) rotate(44)"/>
    <rect x="0"  y="-13" width="13" height="2"  fill="white" transform="translate(56,16) rotate(44)"/>
    <rect x="0"  y="-12" width="9" height="12" transform="translate(56,16) rotate(44) translate(12,-20) rotate(40)"/>
    <rect x="-9" y="-12" width="9" height="12" transform="translate(56,16) rotate(44) translate(0,-20) rotate(-34)"/>
    <rect x="-9" y="-15" width="9" height="15" transform="translate(44,29) rotate(-56)"/>
    <rect x="-10" y="-9" width="11" height="2" fill="white" transform="translate(44,29) rotate(-56)"/>
    <rect x="-8" y="-11" width="8" height="11" transform="translate(44,29) rotate(-56) translate(-9,-15) rotate(-36)"/>
    <rect x="0"  y="-11" width="8" height="11" transform="translate(44,29) rotate(-56) translate(0,-15) rotate(30)"/>
    <rect x="0"  y="-15" width="9" height="15" transform="translate(56,29) rotate(56)"/>
    <rect x="0"  y="-9"  width="11" height="2" fill="white" transform="translate(56,29) rotate(56)"/>
    <rect x="0"  y="-11" width="8" height="11" transform="translate(56,29) rotate(56) translate(9,-15) rotate(36)"/>
    <rect x="-8" y="-11" width="8" height="11" transform="translate(56,29) rotate(56) translate(0,-15) rotate(-30)"/>
  </g>

  <!-- ARM 240° -->
  <g transform="rotate(240,50,50)" fill="#29ABE2">
    <rect x="44" y="16" width="12" height="27"/>
    <rect x="42" y="21" width="16" height="2.5" fill="white"/>
    <rect x="42" y="30" width="16" height="2.5" fill="white"/>
    <rect x="-12" y="-20" width="12" height="20" transform="translate(44,16) rotate(-44)"/>
    <rect x="-13" y="-13" width="13" height="2" fill="white" transform="translate(44,16) rotate(-44)"/>
    <rect x="-9" y="-12" width="9" height="12" transform="translate(44,16) rotate(-44) translate(-12,-20) rotate(-40)"/>
    <rect x="0"  y="-12" width="9" height="12" transform="translate(44,16) rotate(-44) translate(0,-20) rotate(34)"/>
    <rect x="0"  y="-20" width="12" height="20" transform="translate(56,16) rotate(44)"/>
    <rect x="0"  y="-13" width="13" height="2"  fill="white" transform="translate(56,16) rotate(44)"/>
    <rect x="0"  y="-12" width="9" height="12" transform="translate(56,16) rotate(44) translate(12,-20) rotate(40)"/>
    <rect x="-9" y="-12" width="9" height="12" transform="translate(56,16) rotate(44) translate(0,-20) rotate(-34)"/>
    <rect x="-9" y="-15" width="9" height="15" transform="translate(44,29) rotate(-56)"/>
    <rect x="-10" y="-9" width="11" height="2" fill="white" transform="translate(44,29) rotate(-56)"/>
    <rect x="-8" y="-11" width="8" height="11" transform="translate(44,29) rotate(-56) translate(-9,-15) rotate(-36)"/>
    <rect x="0"  y="-11" width="8" height="11" transform="translate(44,29) rotate(-56) translate(0,-15) rotate(30)"/>
    <rect x="0"  y="-15" width="9" height="15" transform="translate(56,29) rotate(56)"/>
    <rect x="0"  y="-9"  width="11" height="2" fill="white" transform="translate(56,29) rotate(56)"/>
    <rect x="0"  y="-11" width="8" height="11" transform="translate(56,29) rotate(56) translate(9,-15) rotate(36)"/>
    <rect x="-8" y="-11" width="8" height="11" transform="translate(56,29) rotate(56) translate(0,-15) rotate(-30)"/>
  </g>

  <!-- ARM 300° -->
  <g transform="rotate(300,50,50)" fill="#29ABE2">
    <rect x="44" y="16" width="12" height="27"/>
    <rect x="42" y="21" width="16" height="2.5" fill="white"/>
    <rect x="42" y="30" width="16" height="2.5" fill="white"/>
    <rect x="-12" y="-20" width="12" height="20" transform="translate(44,16) rotate(-44)"/>
    <rect x="-13" y="-13" width="13" height="2" fill="white" transform="translate(44,16) rotate(-44)"/>
    <rect x="-9" y="-12" width="9" height="12" transform="translate(44,16) rotate(-44) translate(-12,-20) rotate(-40)"/>
    <rect x="0"  y="-12" width="9" height="12" transform="translate(44,16) rotate(-44) translate(0,-20) rotate(34)"/>
    <rect x="0"  y="-20" width="12" height="20" transform="translate(56,16) rotate(44)"/>
    <rect x="0"  y="-13" width="13" height="2"  fill="white" transform="translate(56,16) rotate(44)"/>
    <rect x="0"  y="-12" width="9" height="12" transform="translate(56,16) rotate(44) translate(12,-20) rotate(40)"/>
    <rect x="-9" y="-12" width="9" height="12" transform="translate(56,16) rotate(44) translate(0,-20) rotate(-34)"/>
    <rect x="-9" y="-15" width="9" height="15" transform="translate(44,29) rotate(-56)"/>
    <rect x="-10" y="-9" width="11" height="2" fill="white" transform="translate(44,29) rotate(-56)"/>
    <rect x="-8" y="-11" width="8" height="11" transform="translate(44,29) rotate(-56) translate(-9,-15) rotate(-36)"/>
    <rect x="0"  y="-11" width="8" height="11" transform="translate(44,29) rotate(-56) translate(0,-15) rotate(30)"/>
    <rect x="0"  y="-15" width="9" height="15" transform="translate(56,29) rotate(56)"/>
    <rect x="0"  y="-9"  width="11" height="2" fill="white" transform="translate(56,29) rotate(56)"/>
    <rect x="0"  y="-11" width="8" height="11" transform="translate(56,29) rotate(56) translate(9,-15) rotate(36)"/>
    <rect x="-8" y="-11" width="8" height="11" transform="translate(56,29) rotate(56) translate(0,-15) rotate(-30)"/>
  </g>

  <!-- Centre hole -->
  <circle cx="50" cy="50" r="6" fill="white"/>
</svg>
